<?xml version='1.0' encoding='iso-8859-1'?>
<svg version="1.1" xmlns="http://www.w3.org/2000/svg" viewBox="0 0 463 463" xmlns:xlink="http://www.w3.org/1999/xlink" enable-background="new 0 0 463 463">
  <g>
    <path d="m403.027,434.891l-7.389-36.946c-3.504-17.518-16.351-31.449-33.528-36.357l-76.945-21.984c-3.629-1.037-6.165-4.398-6.165-8.173v-22.191c46.424-19.878 79.39-67.983 79.982-124.205 2.283-5.643 10.385-27.019 13.955-54.313 5.321-40.681-2.12-75.609-21.527-101.283 0.76-4.129 2.597-11.888 6.425-17.923 1.465-2.31 1.556-5.234 0.238-7.631-1.32-2.396-3.838-3.885-6.573-3.885-36.118,0-68.943,7.114-91.594,13.7l.897-.897c2.145-2.145 2.787-5.371 1.626-8.173-1.161-2.803-3.896-4.63-6.929-4.63-40.006,0-81.736,1.886-114.401,24.037-29.365,0.952-61.099,20.176-61.099,47.463 0,62.784 11.416,92.203 24.025,114.066 0.792,55.994 33.697,103.859 79.975,123.674v22.191c0,3.775-2.535,7.136-6.165,8.173l-76.944,21.984c-17.177,4.908-30.024,18.839-33.528,36.357l-7.389,36.946c-1.386,6.931 0.389,14.041 4.871,19.507 4.479,5.467 11.103,8.602 18.172,8.602h296.966c7.068,0 13.692-3.135 18.173-8.601 4.481-5.467 6.256-12.577 4.871-19.508zm-259.655-395.891h0.127c1.558,0 3.077-0.485 4.347-1.388 24.695-17.562 56.887-21.58 89.346-22.412l-10.996,10.996c-2.549,2.549-2.924,6.55-0.894,9.528 2.03,2.978 5.891,4.091 9.196,2.649 0.501-0.219 47.664-20.521 105.146-23.104-2.764,8.038-3.554,14.991-3.601,15.417-0.217,1.986 0.368,3.977 1.625,5.531 29.383,36.321 23.182,87.143 15.453,117.778-1.037-2.186-2.187-4.386-3.431-6.766-1.381-2.642-2.946-5.636-4.628-9.143-1.056-2.2-3.116-3.75-5.523-4.153l-34.8-5.831c-2.094-0.35-4.24,0.203-5.903,1.523-9.081,7.212-20.322,10.965-27.835,12.811l.001-17.909c0-2.977-1.761-5.673-4.487-6.869-2.725-1.195-5.901-0.666-8.093,1.35-15.921,14.656-33.446,23.399-45.53,28.199 0.535-1.263 1.08-2.55 1.624-3.839 2.354-5.579 4.221-10.055 5.549-13.305 3.056-7.482 3.692-9.039 2.291-12.176-0.854-1.912-2.476-3.387-4.46-4.056-15.956-5.376-30.433-2.242-43.206,0.523-12.938,2.802-23.157,5.015-32.656-1.181-3.305-2.156-7.716-1.382-10.089,1.771l-2.065,2.737c-10.515,13.929-18.617,24.676-22.778,39.875-6.309-16.833-12.102-42.924-12.102-86.056 0-18.303 26.003-32.5 48.372-32.5zm-24.372,144.5c0-25.457 7.043-35.795 21.077-54.425 12.69,5.375 25.42,2.619 37.788-0.058 9.36-2.027 18.313-3.965 27.545-2.75-3.286,7.96-8.7,20.717-12.802,30.276-1.111,2.588-0.678,5.581 1.121,7.748s4.659,3.146 7.409,2.529c1.283-0.287 27.808-6.406 54.863-26.398v11.079c0,2.13 0.906,4.16 2.491,5.583 1.586,1.422 3.705,2.103 5.819,1.874 0.977-0.106 23.059-2.637 41.123-15.527l27.83,4.663c1.125,2.244 2.172,4.248 3.134,6.086 5.211,9.968 7.593,14.529 7.602,29.242 0,0.02 0,0.039 0,0.059 0,0.007 0,0.014 0,0.021 0,66.444-50.467,120.5-112.5,120.5s-112.5-54.058-112.5-120.502zm62.956,170.527c10.035-2.867 17.044-12.159 17.044-22.596v-16.899c10.38,2.91 21.272,4.467 32.5,4.467s22.12-1.557 32.5-4.467v16.899c0,10.437 7.009,19.729 17.044,22.596l10.183,2.91c-7.974,25.86-32.18,44.063-59.727,44.063s-51.753-18.203-59.727-44.064l10.183-2.909zm204.6,90.862c-1.621,1.977-4.017,3.111-6.574,3.111h-36.982v-16.5c0-4.142-3.358-7.5-7.5-7.5s-7.5,3.358-7.5,7.5v16.5h-193v-16.5c0-4.142-3.358-7.5-7.5-7.5s-7.5,3.358-7.5,7.5v16.5h-36.983c-2.557,0-4.953-1.134-6.574-3.111-1.621-1.978-2.263-4.549-1.761-7.056l7.389-36.946c2.397-11.985 11.188-21.518 22.94-24.875l52.334-14.952c9.799,32.229 39.895,54.94 74.155,54.94s64.356-22.711 74.154-54.942l52.334,14.952c11.753,3.358 20.543,12.89 22.94,24.875l7.389,36.946c0.502,2.508-0.14,5.08-1.761,7.058z"/>
    <path d="m175.5,192c-4.142,0-7.5,3.358-7.5,7.5v8c0,4.142 3.358,7.5 7.5,7.5s7.5-3.358 7.5-7.5v-8c0-4.142-3.358-7.5-7.5-7.5z"/>
    <path d="m287.5,215c4.142,0 7.5-3.358 7.5-7.5v-8c0-4.142-3.358-7.5-7.5-7.5s-7.5,3.358-7.5,7.5v8c0,4.142 3.358,7.5 7.5,7.5z"/>
    <path d="m267.719,261.481c3.425-2.331 4.312-6.996 1.981-10.42-2.331-3.425-6.996-4.31-10.42-1.981-6.368,4.333-16.753,6.92-27.781,6.92s-21.413-2.587-27.781-6.92c-3.424-2.331-8.089-1.443-10.42,1.981-2.33,3.424-1.443,8.089 1.981,10.42 8.891,6.049 22.093,9.519 36.221,9.519s27.329-3.47 36.219-9.519z"/>
  </g>
</svg>
